<svg version="1.2" xmlns="http://www.w3.org/2000/svg" xmlns:xlink="http://www.w3.org/1999/xlink" overflow="visible" preserveAspectRatio="none" viewBox="0 0 24 24" width="24" height="24"><g><path xmlns:default="http://www.w3.org/2000/svg" id="times" d="M18.18,15.77c0-0.27-0.1-0.52-0.29-0.71l-3.06-3.06l3.06-3.06c0.39-0.39,0.39-1.02,0.01-1.41c0,0,0,0-0.01-0.01  l-1.41-1.41c-0.39-0.39-1.02-0.39-1.41-0.01c0,0,0,0-0.01,0.01L12,9.16L8.94,6.11C8.55,5.71,7.92,5.71,7.52,6.1c0,0,0,0-0.01,0.01  L6.11,7.52C5.72,7.9,5.71,8.54,6.1,8.93c0,0,0,0,0.01,0.01l3.06,3.06l-3.06,3.06c-0.39,0.39-0.39,1.02-0.01,1.41c0,0,0,0,0.01,0.01  l1.42,1.42c0.39,0.39,1.02,0.39,1.41,0.01c0,0,0,0,0.01-0.01L12,14.82l3.06,3.06c0.39,0.39,1.02,0.39,1.41,0.01c0,0,0,0,0.01-0.01  l1.42-1.42c0.19-0.19,0.29-0.44,0.29-0.71l0,0L18.18,15.77z" style="fill: rgb(13, 30, 76);" vector-effect="non-scaling-stroke"/></g></svg>